<?xml version="1.0" encoding="UTF-8"?>
<svg id="Layer_1" xmlns="http://www.w3.org/2000/svg" version="1.1" viewBox="0 0 35.93 32">
  <!-- Generator: Adobe Illustrator 29.4.0, SVG Export Plug-In . SVG Version: 2.1.0 Build 152)  -->
  <defs>
    <style>
      .st0 {
        fill: #eeca48;
      }
    </style>
  </defs>
  <g id="eHEN7Q">
    <g>
      <path class="st0" d="M25.91,2.77c-1.06-1.39-8.14-2.25-10.01-2.09s-5.88,1.36-7.17,2.69c-1.67,1.71-1.2,5.05-1.96,7.17l-1.38-.11-.33-.86c-2.06,1.01-.57,4.79-2.71,4.94v.98s.9.23.9.23l-.39,4.91,1.96,7.69,1.44-5.71c-.21-4.19.65-7.31,5.14-7.92,2.57-.35,5.89.28,8.43.33.44-1.44,1.57-1.13,3.01-1.01,3.53.3,6.12,1.31,6.62,5.22.46,3.55.3,6.66,1.53,10.3.18.54.24,1.18.96,1.25.29-1.31,3.3-3.17,0-2.96-.22-.12,1.37-4.05,1.47-4.7.42-2.76.03-6.63-.26-9.34-.05-.47.38-1.17.27-1.74l-.98.98-.5-6.9-2.9.46c-.09-1.64-1.85-1.49-2.54-2.18-.51-.51-.33-1.28-.59-1.62ZM15.16,29.28c.31-3.02-.2-2.32-2.07-3.1-3.93-1.66-5.63-3.83-5.82,2.61l1-1.46c2.57-.44,4.56,1.39,6.89,1.95ZM28.98,28.3c.29-1.36-.61-2.1-1.83-2.37-1.01-.22-5.4.36-6.23.86-.31.19-1.32,1.82-1.25,2.16,1.26,1.5.27,2.73,2.65,2.32,1.37-.24,1.36-1.84,1.95-1.9.2-.02,2.85,1.49,2.73.16-.08-.87-2.09-.33-1.97-1.23h3.94ZM11.71,28.3c-.71-.1-2.25-.07-2.46.74-.43,1.67,2.8,3.85,1.95.27l-1.46-.52,1.97-.49ZM12.45,28.8l-.24.24,1.23,1.23.24-.24-1.23-1.23Z"/>
      <path class="st0" d="M25.91,2.77c.26.34.08,1.1.59,1.62.69.69,2.45.54,2.54,2.18l2.9-.46.5,6.9.98-.98c.11.57-.32,1.26-.27,1.74.29,2.71.68,6.59.26,9.34-.1.64-1.69,4.58-1.47,4.7,3.3-.21.29,1.65,0,2.96-.73-.07-.78-.71-.96-1.25-1.23-3.65-1.08-6.75-1.53-10.3-.5-3.91-3.08-4.91-6.62-5.22-1.44-.12-2.57-.43-3.01,1.01-2.54-.05-5.87-.68-8.43-.33-4.49.61-5.35,3.73-5.14,7.92l-1.44,5.71-1.96-7.69.39-4.91-.9-.23v-.98c2.14-.15.65-3.93,2.71-4.94l.33.86,1.38.11c.76-2.12.29-5.46,1.96-7.17,1.3-1.33,5.31-2.54,7.17-2.69s8.95.7,10.01,2.09Z"/>
      <path class="st0" d="M28.98,28.3h-3.94c-.12.9,1.89.37,1.97,1.23.12,1.33-2.53-.18-2.73-.16-.59.06-.57,1.66-1.95,1.9-2.38.41-1.39-.81-2.65-2.32-.07-.34.93-1.96,1.25-2.16.83-.51,5.22-1.08,6.23-.86,1.22.27,2.12,1.01,1.83,2.37Z"/>
      <path class="st0" d="M15.16,29.28c-2.33-.57-4.32-2.39-6.89-1.95l-1,1.46c.19-6.44,1.88-4.27,5.82-2.61,1.87.79,2.38.08,2.07,3.1Z"/>
      <path class="st0" d="M11.71,28.3l-1.97.49,1.46.52c.85,3.58-2.38,1.4-1.95-.27.21-.82,1.75-.84,2.46-.74Z"/>
      <rect class="st0" x="12.78" y="28.66" width=".34" height="1.74" transform="translate(-17.09 17.81) rotate(-45.01)"/>
    </g>
  </g>
</svg>